<svg width="16" height="16" viewBox="0 0 16 16" fill="none" xmlns="http://www.w3.org/2000/svg">
<g clip-path="url(#clip0_2267_3228)">
<path opacity="0.25" d="M8 12H7V14H8V12Z" fill="black"/>
<path opacity="0.35" d="M23 12H8V14H23V12Z" fill="black"/>
<path d="M0 11H1V15H0V11Z" fill="black"/>
<path opacity="0.25" d="M1 11H2V15H1V11Z" fill="black"/>
<path opacity="0.35" d="M2 14H3V15H2V14Z" fill="black"/>
<path d="M3 16H2V10H3V11H6V12H7V14H6V15H3V16Z" fill="black"/>
<g clip-path="url(#clip1_2267_3228)">
<rect x="4" width="8" height="8" rx="1" fill="white"/>
<g clip-path="url(#clip2_2267_3228)">
<path fill-rule="evenodd" clip-rule="evenodd" d="M7.29527 4.55542L10.4199 2.48573L11.2965 3.12379C11.3493 3.16225 11.3798 3.21745 11.3882 3.27526L8.3517 5.23842L7.29527 4.55542Z" fill="#01459B"/>
<path fill-rule="evenodd" clip-rule="evenodd" d="M6.25069 3.88008L7.29527 4.55542L10.4267 2.49023L9.36248 1.69757L6.25069 3.88008Z" fill="#0078D3"/>
<path fill-rule="evenodd" clip-rule="evenodd" d="M5.3163 3.27598C5.30164 3.1929 5.33267 3.10288 5.4101 3.04854L8.24628 1.05799C8.32728 1.00113 8.43567 1.00283 8.51486 1.06219L9.29699 1.64882L9.36248 1.69757L6.25069 3.88008L5.3163 3.27598Z" fill="#26AEE9"/>
<path fill-rule="evenodd" clip-rule="evenodd" d="M10.8558 6.85748L8.3517 5.23852L7.29527 4.55552L6.25069 3.88018L5.3163 3.27608L5.31277 3.2738L5.31277 6.26736C5.31277 6.59328 5.57698 6.85748 5.9029 6.85748H10.8558Z" fill="#158FDA"/>
<path d="M8.25768 5.29931L6.84855 6.21034C6.55413 6.40069 6.68893 6.85748 7.03952 6.85748L10.8005 6.85748C11.1264 6.85748 11.3906 6.59328 11.3906 6.26736L11.3906 3.2738L11.3882 3.27537L8.25768 5.29931Z" fill="#4DE2FB"/>
<path d="M4.67773 2.70039C4.67773 2.55985 4.79166 2.44592 4.9322 2.44592H7.58904C7.72958 2.44592 7.84351 2.55985 7.84351 2.70039V5.35723C7.84351 5.49777 7.72958 5.6117 7.58904 5.6117H4.9322C4.79166 5.6117 4.67773 5.49777 4.67773 5.35723V2.70039Z" fill="#0C69CE"/>
<path d="M5.48174 3.58003C5.54564 3.44139 5.65051 3.32454 5.7829 3.24449C5.92956 3.15935 6.09741 3.11537 6.26795 3.11738C6.4259 3.11147 6.58244 3.14804 6.72047 3.2231C6.85028 3.2959 6.95564 3.40393 7.02374 3.5341C7.09793 3.67755 7.13632 3.83613 7.13577 3.99689C7.14196 4.16478 7.10781 4.3318 7.03604 4.48455C6.97069 4.62158 6.86566 4.73695 6.73394 4.8164C6.70397 4.83385 6.67307 4.84952 6.64143 4.86338C6.52446 4.91458 6.39725 4.94089 6.2683 4.94004C6.10699 4.94646 5.94701 4.9095 5.80581 4.83319C5.67488 4.76032 5.56823 4.65218 5.49858 4.52168C5.42399 4.38033 5.38521 4.22355 5.38548 4.06449C5.37977 3.89802 5.41268 3.73241 5.48174 3.58003ZM5.82099 4.35076C5.85766 4.43715 5.91867 4.5116 5.99694 4.56548C6.07663 4.61798 6.17146 4.6442 6.26755 4.64028C6.36999 4.64257 6.47043 4.61223 6.55371 4.55386C6.62922 4.49766 6.68621 4.42109 6.71764 4.33362C6.75277 4.23593 6.76921 4.13279 6.76616 4.02934C6.7656 3.92485 6.74689 3.82123 6.71083 3.72289C6.67895 3.63408 6.62133 3.55626 6.54498 3.49886C6.46193 3.44048 6.36081 3.41184 6.25861 3.41774C6.16035 3.41685 6.06431 3.44638 5.98428 3.5021C5.90648 3.55875 5.84679 3.63583 5.81218 3.72433C5.7355 3.92717 5.7387 4.15051 5.82114 4.35104L5.82099 4.35076Z" fill="white"/>
</g>
</g>
</g>
<defs>
<clipPath id="clip0_2267_3228">
<rect width="16" height="16" fill="white"/>
</clipPath>
<clipPath id="clip1_2267_3228">
<rect x="4" width="8" height="8" rx="1" fill="white"/>
</clipPath>
<clipPath id="clip2_2267_3228">
<rect width="7" height="7" fill="white" transform="translate(4.5 0.5)"/>
</clipPath>
</defs>
</svg>
